# xmcd
#
# Track frame offsets:
#	150
#	10167
#	20442
#	31087
#	41560
#	53700
#	63510
#	75362
#	84715
#	93590
#	106862
#	118242
#	128340
#	138487
#	148242
#	156277
#	168400
#	179992
#	189312
#	199892
#	212502
#	222822
#	235652
#	246827
#	257992
#	270975
#	284585
#
# Disc length: 3968 seconds
#
# Revision: 0
# Processed by: cddbd v1.5.2PL0 Copyright (c) Steve Scherf et al.
# Submitted via: audiograbber 1.83.01
#
DISCID=830f7e1b
DTITLE=Various Artist - Big City Soul, Volume 1
DYEAR=1900
DGENRE=Soul
TTITLE0=Garnet Mimms - Looking For You
TTITLE1=Sam E. Solo - Love Is Not A Game
TTITLE2=Shawn Robinson - My Dear Heart
TTITLE3=Rose St. John and The Wonderettes - Mend My Broken Heart
TTITLE4=The O'Jays - Hold On
TTITLE5=Jimmy Holiday and Clydie King - Ready, Willing And Able
TTITLE6=Homer Banks - A Lot Of Love
TTITLE7=Homer Banks - Hooked By Love
TTITLE8=Danny Wagner and The Kindred Soul - I Lost A True Love
TTITLE9=The Jive Five - Then Came Heart Break
TTITLE10=Gene McDaniels - Strange Neighbourhood
TTITLE11=Estelle Brown - Stick Close
TTITLE12=Betty Turner - Be Careful, Girl
TTITLE13=The O'Jays - I'll Never Forget You
TTITLE14=June Jackson - It's What's Underneath That Counts
TTITLE15=The O'Jays - Working On Your Case
TTITLE16=Alder Ray - My Heart Is In Danger
TTITLE17=The Diplomats - Honest To Goodness
TTITLE18=The Crystals - Are You Trying To Get Rid Of Me Baby
TTITLE19=The Steve Karmen Big Band - Breakaway
TTITLE20=Dee Irwin - I Only Get This Feeling
TTITLE21=Jay and The Americans - Living Above Your Head
TTITLE22=Marva Josie - Don't
TTITLE23=Ray Pollard - It's A Sad Thing
TTITLE24=Gene McDaniels - Walk With A Winner
TTITLE25=Ray Pollard - The Drifter
TTITLE26=Timi Yuro - It Will Never Be Over For Me
EXTD=
EXTT0=
EXTT1=
EXTT2=
EXTT3=
EXTT4=
EXTT5=
EXTT6=
EXTT7=
EXTT8=
EXTT9=
EXTT10=
EXTT11=
EXTT12=
EXTT13=
EXTT14=
EXTT15=
EXTT16=
EXTT17=
EXTT18=
EXTT19=
EXTT20=
EXTT21=
EXTT22=
EXTT23=
EXTT24=
EXTT25=
EXTT26=
PLAYORDER=
